<?xml version="1.0" encoding="UTF-8" standalone="no"?>
<svg width="24px" height="24px" viewBox="0 0 24 24" version="1.1" xmlns="http://www.w3.org/2000/svg" xmlns:xlink="http://www.w3.org/1999/xlink">
    <!-- Generator: Sketch 3.8.3 (29802) - http://www.bohemiancoding.com/sketch -->
    <title>nextui-draw</title>
    <desc>Created with Sketch.</desc>
    <defs></defs>
    <g id="Page-1" stroke="none" stroke-width="1" fill="none" fill-rule="evenodd">
        <g id="nextui-draw" fill="#000000">
            <g id="Group">
                <path d="M3.67538746,6.59140946 L20.3301025,6.59140946 L20.3301025,15.6758837 L3.67538746,15.6758837 L3.67538746,6.59140946 L3.67538746,6.59140946 L3.67538746,6.59140946 Z M23.1355454,3.42567196 L0.869819198,3.42567196 C0.396697941,3.42567196 0.0135375756,3.80978403 0.0135375756,4.28278005 L0.0135375756,17.9844379 C0.0135375756,18.4575592 0.384350856,18.8400183 0.857346879,18.8400183 L23.1356706,18.8400183 C23.6086667,18.8400183 23.9919523,18.4575342 23.9919523,17.9844379 L23.9919523,4.28275501 C23.9919523,3.80975899 23.6086667,3.42567196 23.1355454,3.42567196 L23.1355454,3.42567196 L23.1355454,3.42567196 Z M22.2793891,17.127405 L1.72610082,17.127405 L1.72610082,5.13823521 L22.2793891,5.13823521 L22.2793891,17.127405 L22.2793891,17.127405 L22.2793891,17.127405 Z M2.58240746,23.9791606 L4.29487051,23.9791606 L5.80196621,19.6969761 L4.12626893,19.6969761 L2.58240746,23.9791606 L2.58240746,23.9791606 Z M12.7965773,0.000720815944 L11.2252918,0.000720815944 L10.2988096,2.56876423 L13.7207053,2.56876423 L12.7965773,0.000720815944 L12.7965773,0.000720815944 Z M18.2033984,19.6969761 L19.7106193,23.9791606 L21.4231826,23.9791606 L19.8823014,19.6969761 L18.2033984,19.6969761 L18.2033984,19.6969761 Z M11.1463757,19.6969761 L12.8589639,19.6969761 L12.8589639,22.2666725 L11.1463757,22.2666725 L11.1463757,19.6969761 L11.1463757,19.6969761 L11.1463757,19.6969761 Z" id="Shape"></path>
            </g>
        </g>
    </g>
</svg>