<?xml version="1.0" encoding="UTF-8" standalone="no"?>
<svg width="24px" height="24px" viewBox="0 0 24 24" version="1.1" xmlns="http://www.w3.org/2000/svg" xmlns:xlink="http://www.w3.org/1999/xlink">
    <!-- Generator: Sketch 3.8.3 (29802) - http://www.bohemiancoding.com/sketch -->
    <title>nextui-business</title>
    <desc>Created with Sketch.</desc>
    <defs>
        <rect id="path-1" x="0" y="0" width="24" height="24"></rect>
        <mask id="mask-2" maskContentUnits="userSpaceOnUse" maskUnits="objectBoundingBox" x="0" y="0" width="24" height="24" fill="white">
            <use xlink:href="#path-1"></use>
        </mask>
    </defs>
    <g id="Page-1" stroke="none" stroke-width="1" fill="none" fill-rule="evenodd">
        <g id="nextui-business">
            <g id="业务">
                <use id="Rectangle-6605" stroke="#979797" mask="url(#mask-2)" stroke-width="2" fill="#D8D8D8" opacity="0" xlink:href="#path-1"></use>
                <g id="Group" transform="translate(2.000000, 2.000000)" fill="#000000">
                    <path d="M-1.55431223e-15,6.9671627 L-1.55431223e-15,16.3307516 C-1.55431223e-15,17.8034404 1.24901099,19 2.79322292,19 L2.86797806,19 L2.86797806,4.296812 L2.79322292,4.296812 C1.24901099,4.296812 -1.55431223e-15,5.49392278 -1.55431223e-15,6.9671627 L-1.55431223e-15,6.9671627 Z M13.4842987,3.16308414 C13.4842987,1.41867547 12.0814121,3.55271368e-15 10.3467656,3.55271368e-15 L9.65323436,3.55271368e-15 C7.92240742,3.55271368e-15 6.51570128,1.41867549 6.51570128,3.16308414 L6.51570128,4.296812 L5.02987475,4.296812 L5.02987475,19 L14.9695795,19 L14.9695796,4.296812 L13.4842987,4.296812 L13.4842987,3.16308414 L13.4842987,3.16308414 Z M12.322593,4.296812 L7.67740702,4.296812 L7.67740702,3.16308414 C7.68177229,2.06242565 8.56137287,1.17616685 9.65323436,1.17175759 L10.3467656,1.17175759 C11.4386271,1.17561569 12.3225929,2.06242565 12.3225929,3.16308414 L12.322593,4.296812 L12.322593,4.296812 Z M17.2067771,4.296812 L17.1320219,4.296812 L17.1320219,19 L17.2067771,19 C18.7466237,19 20,17.8034404 20,16.3307516 L20,6.9671627 C20,5.49392278 18.7466237,4.296812 17.2067771,4.296812 L17.2067771,4.296812 Z" id="Shape"></path>
                </g>
            </g>
        </g>
    </g>
</svg>