<?xml version="1.0" encoding="UTF-8" standalone="no"?>
<svg width="24px" height="24px" viewBox="0 0 24 24" version="1.1" xmlns="http://www.w3.org/2000/svg" xmlns:xlink="http://www.w3.org/1999/xlink">
    <!-- Generator: Sketch 3.8.3 (29802) - http://www.bohemiancoding.com/sketch -->
    <title>nextui-logo</title>
    <desc>Created with Sketch.</desc>
    <defs></defs>
    <g id="Page-1" stroke="none" stroke-width="1" fill="none" fill-rule="evenodd">
        <g id="nextui-logo" fill="#000000">
            <g id="未标题-2" transform="translate(2.000000, 0.000000)">
                <g id="Group">
                    <rect id="Rectangle-path" x="6.37706667" y="0.00629735792" width="2.1696" height="9.00481746"></rect>
                    <rect id="Rectangle-path" x="10.4034667" y="13.6055927" width="2.16933333" height="2.1901111"></rect>
                    <rect id="Rectangle-path" x="10.4034667" y="20.4490955" width="2.16933333" height="2.59035456"></rect>
                    <g transform="translate(0.000000, 1.873572)">
                        <path d="M6.13813333,0.0702737698 L15.0234667,0.0702737698 L19.9253333,2.53408271 L15.0234667,4.99789164 L6.35973333,4.99789164 C5.84293333,4.99789164 5.4224,5.41451471 5.4224,5.9267735 C5.4224,6.43823974 5.84293333,6.8548628 6.35973333,6.8548628 L6.8664,6.86226004 L13.6768,6.86226004 C16.9368,6.86226004 19.5885333,9.48986498 19.5885333,12.7179672 C19.5885333,15.9487113 16.9368,18.5755237 13.6768,18.5755237 L1.35866667,18.5755237 L1.35866667,13.6457923 L13.4552,13.6457923 C13.9717333,13.6457923 14.3917333,13.2310186 14.3917333,12.717703 C14.3917333,12.2049159 13.9717333,11.7877644 13.4552,11.7877644 L6.13786667,11.7827449 C2.87866667,11.7827449 0.2264,9.15593248 0.2264,5.9267735 C0.2264,2.69682196 2.87866667,0.0702737698 6.13813333,0.0702737698 L6.13813333,0.0702737698 Z M14.8904,0.621632257 L6.13813333,0.621632257 C3.18586667,0.621632257 0.782933333,3.00116551 0.782933333,5.9267735 C0.782933333,8.85132475 3.18586667,11.2313864 6.13813333,11.2313864 L13.4552,11.2366701 C14.2789333,11.2366701 14.9488,11.9013649 14.9488,12.7179672 C14.9488,13.5343054 14.2789333,14.1984717 13.4552,14.1984717 L1.916,14.1984717 L1.916,18.0241652 L13.6770667,18.0241652 C16.6298667,18.0241652 19.0322667,15.6441036 19.0322667,12.7179672 C19.0322667,9.79315177 16.6298667,7.41388271 13.6770667,7.41388271 L6.35306667,7.40622129 C5.53626667,7.40622129 4.86586667,6.74231909 4.86586667,5.9267735 C4.86586667,5.11017116 5.53626667,4.44626897 6.36,4.44626897 L14.8906667,4.44626897 L18.6949333,2.53408271 L14.8904,0.621632257 L14.8904,0.621632257 Z" id="Shape"></path>
                        <path d="M6.0944,3.02811259 L14.1853333,3.02811259 L14.1853333,3.57973527 L6.0944,3.57973527 C4.788,3.57973527 3.7256,4.63278506 3.7256,5.9267735 C3.7256,7.22340381 4.78773333,8.27751036 6.0944,8.27751036 L12.6746667,8.27751036 L13.5952,8.28781365 C16.0586667,8.28781365 18.0650667,10.2747649 18.0650667,12.7179672 C18.0650667,15.1611696 16.0589333,17.1494417 13.5928,17.1494417 L4.34533333,17.1494417 L4.34533333,16.5975548 L13.5928,16.5975548 C15.752,16.5975548 17.508,14.8573544 17.508,12.717703 C17.508,10.5791084 15.752,8.83890795 13.5928,8.83890795 L12.2530667,8.8296614 L6.0944,8.8296614 C4.4808,8.8296614 3.1688,7.52642642 3.1688,5.92650931 C3.1688,4.32844152 4.4808,3.02811259 6.0944,3.02811259 L6.0944,3.02811259 Z" id="Shape"></path>
                        <rect id="Rectangle-path" x="3.86106667" y="13.922132" width="0.5568" height="4.37731613"></rect>
                        <path d="M6.22186667,1.4955632 L14.1850667,1.4955632 L14.1850667,2.04771425 L6.22186667,2.04771425 C4.06346667,2.04771425 2.30693333,3.78738633 2.30693333,5.9267735 C2.30693333,8.06457555 4.06346667,9.80504019 6.22186667,9.80504019 L13.7208,9.8150793 C15.3336,9.8150793 16.6464,11.1180501 16.6464,12.7179672 C16.6464,14.3165634 15.3336,15.6166281 13.7208,15.6166281 L4.34533333,15.6166281 L4.34533333,15.0652696 L13.7208,15.0652696 C15.0264,15.0652696 16.0893333,14.0132766 16.0893333,12.7179672 C16.0893333,11.4221295 15.0264,10.3674945 13.7208,10.3674945 L12.8266667,10.3674945 L6.22133333,10.3571912 C3.756,10.3571912 1.7496,8.36997584 1.7496,5.9267735 C1.74986667,3.48330697 3.75626667,1.4955632 6.22186667,1.4955632 L6.22186667,1.4955632 Z" id="Shape"></path>
                        <polygon id="Shape" points="14.808 0.361143772 15.2056 0.747121131 14.3466667 1.61497577 15.4250667 2.43448417 14.3109333 3.56863941 15.2117333 4.53503584 14.8021333 4.90991734 13.5442667 3.5586003 14.5890667 2.49445464 13.508 1.67441787"></polygon>
                        <rect id="Rectangle-path" x="1.6376" y="13.922132" width="2.50213333" height="4.37731613"></rect>
                        <polygon id="Shape" points="17.8818667 3.32373796 17.8818667 1.74389908 19.3098667 2.53408271"></polygon>
                    </g>
                    <rect id="Rectangle-path" x="10.4034667" y="0.00629735792" width="2.16933333" height="8.72953449"></rect>
                    <rect id="Rectangle-path" x="6.37706667" y="13.6571092" width="2.1696" height="9.38234083"></rect>
                </g>
            </g>
        </g>
    </g>
</svg>