<?xml version="1.0" encoding="UTF-8" standalone="no"?>
<svg width="24px" height="24px" viewBox="0 0 24 24" version="1.1" xmlns="http://www.w3.org/2000/svg" xmlns:xlink="http://www.w3.org/1999/xlink">
    <!-- Generator: Sketch 3.8.3 (29802) - http://www.bohemiancoding.com/sketch -->
    <title>nextui-patent</title>
    <desc>Created with Sketch.</desc>
    <defs></defs>
    <g id="Page-1" stroke="none" stroke-width="1" fill="none" fill-rule="evenodd">
        <g id="nextui-patent" fill="#000000">
            <path d="M21.4991266,0.00827428188 L2.5794453,0.00827428188 C1.71228611,0.00827428188 1.00283918,0.728251738 1.00283918,1.60823029 L1.00283918,22.4083183 C1.00283918,23.2883243 1.71228608,24.0082743 2.5794453,24.0082743 L21.4202296,24.0082743 C22.2873888,24.0082743 22.9968358,23.2882968 22.9968358,22.4083183 L22.9968357,1.60825778 C23.0757327,0.728251738 22.3662858,0.00827428188 21.4991266,0.00827428188 L21.4991266,0.00827428188 L21.4991266,0.00827428188 Z M10.5858554,6.24368416 L12.2087136,3.20585205 L13.831705,6.24368416 L17.2321671,6.88321619 L14.9136726,9.36140282 L15.3773502,12.7989424 L12.2861131,11.3599404 L9.19471609,12.798915 L9.65842031,9.36137536 L7.34003251,6.88318872 L10.5858554,6.24368416 L10.5858554,6.24368416 L10.5858554,6.24368416 Z M14.1407967,19.9935405 L4.09404959,19.9935405 L4.09404959,18.3947379 L14.14077,18.3947379 L14.14077,19.9935405 L14.1407967,19.9935405 L14.1407967,19.9935405 Z M20.0940763,17.1026485 L4.09407627,17.1026485 L4.09407627,15.1026485 L20.0141481,15.1026485 L20.0141481,17.1026485 L20.0940763,17.1026485 L20.0940763,17.1026485 Z" id="Shape"></path>
        </g>
    </g>
</svg>