<?xml version="1.0" encoding="UTF-8" standalone="no"?>
<svg width="24px" height="24px" viewBox="0 0 24 24" version="1.1" xmlns="http://www.w3.org/2000/svg" xmlns:xlink="http://www.w3.org/1999/xlink">
    <!-- Generator: Sketch 3.8.3 (29802) - http://www.bohemiancoding.com/sketch -->
    <title>nextui-user</title>
    <desc>Created with Sketch.</desc>
    <defs></defs>
    <g id="Page-1" stroke="none" stroke-width="1" fill="none" fill-rule="evenodd">
        <g id="nextui-user" fill="#000000">
            <g id="Group">
                <path d="M11.4099221,23.7518147 L11.339848,23.7518147 L0.0311955797,23.7518147 C0.0311955797,23.7518147 -0.139238877,20.5711634 0.572785183,19.7641236 C1.51819161,18.6910398 3.54440185,17.7444457 5.54329509,17.0288586 C7.54040678,16.3132714 8.6752508,15.168332 8.6752508,14.5246005 C8.6752508,13.8802751 8.22986462,11.7341075 7.40322783,11.5185406 C6.57659107,11.3041614 6.09379242,8.87175893 6.09379242,8.15557791 C6.09379242,7.43999077 6.50651694,7.65555769 6.50651694,7.65555769 C6.50651694,7.65555769 5.88594552,5.61509507 6.57659104,3.29017915 C7.49408661,0.202168214 10.7691597,0.0139183301 11.3297525,0.00441674873 L11.3297525,0.00382289352 C11.3297525,0.00382289352 11.3451926,0.0026352086 11.3754789,0.00382289352 C11.4039836,0.0026352086 11.4200175,0.00382289352 11.4200175,0.00382289352 L11.4200175,0.00441674873 C11.9930811,0.0127306197 15.3946439,0.196823593 16.2105914,3.29017915 C16.8287874,5.63528592 16.2794778,7.65555769 16.2794778,7.65555769 C16.2794778,7.65555769 16.6927961,7.44058463 16.6927961,8.15557791 C16.6927961,8.87235276 16.2099975,11.3041614 15.3833607,11.5185406 C14.556724,11.7335137 14.0418575,13.8802751 14.0418575,14.5246005 C14.0418575,14.9064449 14.4747729,15.4652561 15.2384617,16.0062519 C15.2372741,16.0899845 15.2372741,16.1713417 15.2384617,16.2598251 C15.2479633,17.735538 16.2996686,21.4435265 18.6905017,23.3325578 C18.8876593,23.4881461 19.0735338,23.6247312 19.2534698,23.7518147 L11.4099221,23.7518147 L11.4099221,23.7518147 L11.4099221,23.7518147 Z M23.0820095,23.2547637 C22.9495814,23.3723457 22.8070578,23.4661737 22.5356691,23.5611894 C22.0457443,23.7363746 21.2903693,24.0119202 19.3603625,22.4851363 C17.2973336,20.8538352 16.3257979,17.5354111 16.3180779,16.2532927 C16.309764,14.9735498 16.3869643,14.4978773 16.8157227,13.9830109 C17.2474504,13.4681444 18.2641186,12.8523238 18.6037998,13.0108813 C18.689314,13.0506691 18.86925,13.8678043 19.0735338,14.7288843 C19.2855376,15.6190628 19.3781779,16.0977045 19.2790053,16.1291785 C18.9054747,16.2574497 18.2569924,16.5199306 18.2273,16.6654234 C18.1518813,17.031234 18.1156565,17.9380403 18.5960798,18.9849947 C19.076503,20.0319492 19.9714323,20.8235489 20.2962673,20.8847153 C20.6199146,20.9458817 20.8426077,20.6364868 21.2416738,20.4779293 C21.640146,20.3169964 21.6644937,20.3835074 21.6644937,20.3835074 C21.6644937,20.3835074 22.121163,20.9203462 22.6942266,21.3823602 C23.0742895,21.6875982 23.8059105,22.2820403 23.8100675,22.3479574 C23.8154121,22.4649455 23.3504289,23.0172244 23.0820095,23.2547637 L23.0820095,23.2547637 L23.0820095,23.2547637 Z" id="Shape"></path>
            </g>
        </g>
    </g>
</svg>