<?xml version="1.0" encoding="UTF-8" standalone="no"?>
<svg width="24px" height="24px" viewBox="0 0 24 24" version="1.1" xmlns="http://www.w3.org/2000/svg" xmlns:xlink="http://www.w3.org/1999/xlink">
    <!-- Generator: Sketch 3.8.3 (29802) - http://www.bohemiancoding.com/sketch -->
    <title>nextui-user-a</title>
    <desc>Created with Sketch.</desc>
    <defs></defs>
    <g id="Page-1" stroke="none" stroke-width="1" fill="none" fill-rule="evenodd">
        <g id="nextui-user-a" fill="#000000">
            <path d="M7.97478667,13.013363 C9.31702666,14.8566997 11.3736874,14.9999624 11.9719101,14.9999624 L12.0280943,14.9999624 C12.6265632,14.9999624 14.6831419,14.8566997 16.0252177,13.0134999 C16.5536614,12.287716 17.0915969,10.9741009 17.3252785,10.3683138 C18.1206931,9.41857597 18.422321,8.51640984 18.221874,7.68379483 C18.1209393,7.26440801 17.8946705,6.89735559 17.583086,6.62862177 C17.7068062,5.62063727 17.7002687,4.47943546 17.3346881,3.47626832 C16.8162011,2.05256478 15.8787667,1.04682474 14.5488905,0.487678825 C13.5021238,0.0474348967 12.5099002,0 12.1318738,0 L12.0756075,0 C12.0459562,0 12.0206815,0.000164233623 12.0000569,0.000629544391 C11.9794323,0.000164233623 11.9539935,0 11.9242602,0 L11.8680759,0 C11.4900495,0 10.4978258,0.0474075066 9.4510592,0.487678825 C8.12112832,1.04690686 7.18383066,2.05256478 6.66526158,3.47626832 C6.29984514,4.47940807 6.29330764,5.62063727 6.41686374,6.62862177 C6.10536121,6.89732823 5.87901036,7.26440801 5.77807566,7.68393167 C5.57771072,8.51654668 5.87922918,9.41854858 6.6746712,10.3682864 C6.90854428,10.9741282 7.44634294,12.287716 7.97478667,13.013363 L7.97478667,13.013363 L7.97478667,13.013363 Z M13.5246358,16.5098863 L12.8288976,15.7500522 L11.1711341,15.7500522 L10.4753959,16.5098863 C10.4753959,16.5098863 10.8729528,17.3578567 11.5191264,17.6874649 L10.4753959,20.3256439 C10.4753959,20.3256439 11.2383692,21.4135806 12.0001116,21.6940569 C12.7616899,21.4135806 13.5246632,20.3256439 13.5246632,20.3256439 L12.4810149,17.6874649 C13.1269149,17.3578294 13.5246358,16.5098863 13.5246358,16.5098863 L13.5246358,16.5098863 L13.5246358,16.5098863 Z M22.8539834,18.5160289 C21.5896463,16.8973305 15.9600068,15.7500522 15.9600068,15.7500522 C16.7055559,20.0307428 12.0000569,22.6338315 12.0000569,22.6338315 C12.0000569,22.6338315 7.29442117,20.0307702 8.04005229,15.7500522 C8.04005229,15.7500522 2.41027598,16.8973305 1.14585691,18.5160289 C-0.193948589,20.231431 -0.0361458189,21.9227461 0.0633118024,22.6293152 C0.162605298,23.3358842 0.336300498,23.7645226 1.47932439,24 L22.5205706,24 C23.6636766,23.7645226 23.8372897,23.3358842 23.93672,22.6293152 C24.0361502,21.9227461 24.1938983,20.231431 22.8539834,18.5160289 L22.8539834,18.5160289 L22.8539834,18.5160289 Z" id="Shape"></path>
        </g>
    </g>
</svg>