<?xml version="1.0" encoding="UTF-8" standalone="no"?>
<svg width="24px" height="24px" viewBox="0 0 24 24" version="1.1" xmlns="http://www.w3.org/2000/svg" xmlns:xlink="http://www.w3.org/1999/xlink">
    <!-- Generator: Sketch 3.8.3 (29802) - http://www.bohemiancoding.com/sketch -->
    <title>nextui-Registration certificate</title>
    <desc>Created with Sketch.</desc>
    <defs></defs>
    <g id="Page-1" stroke="none" stroke-width="1" fill="none" fill-rule="evenodd">
        <g id="nextui-Registration-certificate" fill="#000000">
            <g id="ic_note_add">
                <g id="Group" transform="translate(1.714286, 0.000000)">
                    <path d="M10.8857292,18.9687913 C11.0418565,19.0994821 11.1979838,19.2312145 11.3552075,19.3619327 C11.9193051,19.1112136 12.5183777,18.9444238 13.0727995,18.6703513 C12.5141018,18.1806719 12.0201464,17.6081595 11.3967062,17.1992573 C11.2404967,17.7929851 11.0716238,18.3835332 10.8857292,18.9687913 L10.8857292,18.9687913 Z M15.7166847,12.469198 C16.2924041,13.0024319 16.8744278,13.5292793 17.4512709,14.0614716 C17.5807557,13.9254906 17.710405,13.7895371 17.8389304,13.6525146 C17.244024,13.1171701 16.6662489,12.5616245 16.0660524,12.0315702 C15.9524928,12.1802967 15.8324645,12.323651 15.7166847,12.469198 L15.7166847,12.469198 Z M19.3448899,0.580581911 C18.8221815,0.127001438 18.1073838,0.0133870446 17.4381964,0.001710375 C12.5499814,0.00595891071 7.66267104,0.00275196429 2.77445612,0.00275196429 C1.95969423,-0.000427607143 1.09510101,0.265120366 0.590565375,0.941708491 C0.190105446,1.39106783 0.111466205,2.00390033 0.0137770179,2.57328798 L0.0137770179,21.4273849 C0.122128687,22.1358783 0.328196973,22.8911056 0.923021116,23.3489072 C1.48382946,23.8524013 2.26882409,23.9416208 2.99006309,23.9608078 C7.6616569,23.9596566 12.3343197,23.9555177 17.0068728,23.9629732 C17.8046405,23.9629732 18.6873243,23.9161021 19.327841,23.3765639 C19.9704681,22.8900915 20.2295747,22.0646945 20.2370577,21.2850448 C20.239223,15.0871259 20.2370577,8.88912471 20.2380992,2.69224733 C20.2360434,1.90834913 19.9854613,1.07771687 19.3448899,0.580581911 L19.3448899,0.580581911 Z M4.19569138,4.55960756 C4.46228092,4.52137063 4.73421541,4.53839223 5.00299773,4.53625425 C8.15879183,4.54475135 11.3156001,4.52986773 14.4704622,4.54368236 C14.8123744,4.51712207 15.0535275,4.96642658 14.8559289,5.24156804 C14.7411907,5.45821658 14.4671456,5.47948674 14.2505519,5.48159729 C11.0256846,5.48055571 7.80185896,5.47945931 4.57811553,5.48159729 C4.37733737,5.4731002 4.12985258,5.47630717 3.99494062,5.3010203 C3.78248582,5.07905424 3.89612762,4.63824683 4.19569138,4.55960756 L4.19569138,4.55960756 Z M14.466104,7.45519864 C11.1722184,7.47222024 7.87836024,7.45308806 4.58441981,7.46476473 C4.36670229,7.45733663 4.14095363,7.45969388 3.9567037,7.25655846 C3.78566537,7.02395732 3.90114364,6.57914804 4.28636363,6.54699611 C4.61487233,6.54562562 10.781352,6.56610086 14.133758,6.54699611 C14.3578072,6.57037682 14.6519986,6.49283397 14.8082081,6.70419238 C15.0758392,6.96554663 14.8453486,7.49554615 14.466104,7.45519864 L14.466104,7.45519864 Z M8.29899391,15.220777 C8.10646615,15.4133048 7.87624969,15.4133048 7.66269846,15.4206781 C6.63342603,15.4196365 5.60415359,15.4196365 4.57488115,15.4206781 C4.36566072,15.4068634 4.13314179,15.423282 3.97153251,15.2209963 C3.80120684,14.9983724 3.86427723,14.7453782 4.02358406,14.5768342 C4.11280358,14.5226446 4.27249417,14.4678795 4.58124027,14.4668653 C5.4609364,14.4635487 7.09224182,14.4680988 7.66376746,14.4668653 C7.66376746,14.4668653 8.01349149,14.450666 8.22032724,14.5518363 C8.49815488,14.7427742 8.48275047,15.0189025 8.29899391,15.220777 L8.29899391,15.220777 Z M9.10202432,11.4607846 C7.42055863,11.4660747 6.27125786,11.4586466 4.5897922,11.4660747 C4.37097828,11.4596882 4.09586421,11.493704 3.96624238,11.2706415 C3.74742846,10.9753811 3.99176108,10.506917 4.36779871,10.5387674 C5.9239185,10.5133036 7.4821763,10.540878 9.0382961,10.5260492 C9.31763127,10.5270908 9.71441826,10.6239028 9.72686239,10.9852213 C9.71441826,11.3209936 9.30809261,11.456536 9.10202432,11.4607846 L9.10202432,11.4607846 Z M4.58979217,9.46171937 C4.40280123,9.43938021 4.16277198,9.49356978 4.02361146,9.33316653 C3.75381496,9.10053796 3.90147257,8.57903555 4.26791668,8.55140628 C4.65146464,8.52070709 5.04337264,8.52805296 5.43105951,8.52270801 C8.33723084,8.52166642 11.242388,8.52594238 14.1485045,8.52059743 C14.3918778,8.53652263 14.7316794,8.50467222 14.8549147,8.7702202 C15.0206629,8.99643482 14.8783228,9.3363735 14.6286727,9.42666198 C14.2909268,9.48718323 13.945698,9.45536025 13.6036762,9.46171937 C10.5997608,9.45960879 7.59477651,9.45851239 4.58979217,9.46171937 L4.58979217,9.46171937 Z M18.0500147,13.8443571 C16.7498494,15.2337419 15.4614977,16.6326655 14.1687057,18.0283546 C13.8139656,18.3864387 13.5250644,18.8611249 13.0225845,19.0248173 C12.098539,19.3752266 11.1712043,19.7183723 10.2502835,20.0741539 C10.5434059,19.1192995 10.8014709,18.1537005 11.0883165,17.1966808 C11.1425608,16.9821703 11.2518719,16.7856955 11.4069576,16.6284444 C12.7134546,15.2455008 13.9924595,13.8358874 15.2936664,12.448668 C15.7226875,11.9887284 16.1147052,11.413009 16.7488078,11.2303488 C17.5146429,10.9902648 18.4154721,11.5234987 18.5641165,12.3148524 C18.7118289,12.8767023 18.4345768,13.4449936 18.0500147,13.8443571 L18.0500147,13.8443571 Z" id="Shape"></path>
                </g>
            </g>
        </g>
    </g>
</svg>