<?xml version="1.0" encoding="UTF-8" standalone="no"?>
<svg width="24px" height="24px" viewBox="0 0 24 24" version="1.1" xmlns="http://www.w3.org/2000/svg" xmlns:xlink="http://www.w3.org/1999/xlink">
    <!-- Generator: Sketch 3.8.3 (29802) - http://www.bohemiancoding.com/sketch -->
    <title>nextui-video</title>
    <desc>Created with Sketch.</desc>
    <defs></defs>
    <g id="Page-1" stroke="none" stroke-width="1" fill="none" fill-rule="evenodd">
        <g id="nextui-video" fill="#000000">
            <g id="ic_note_add">
                <g id="Page-1">
                    <g transform="translate(2.000000, 1.000000)" id="Fill-1">
                        <path d="M17.5,0 L17.5,2.44444444 L15,2.44444444 L15,0 L5,0 L5,2.44444444 L2.5,2.44444444 L2.5,0 L0,0 L0,22 L2.5,22 L2.5,19.5555556 L5,19.5555556 L5,22 L15,22 L15,19.5555556 L17.5,19.5555556 L17.5,22 L20,22 L20,0 L17.5,0 L17.5,0 L17.5,0 Z M5,17.1111111 L2.5,17.1111111 L2.5,14.6666667 L5,14.6666667 L5,17.1111111 L5,17.1111111 L5,17.1111111 Z M5,12.2222222 L2.5,12.2222222 L2.5,9.77777778 L5,9.77777778 L5,12.2222222 L5,12.2222222 L5,12.2222222 Z M5,7.33333333 L2.5,7.33333333 L2.5,4.88888889 L5,4.88888889 L5,7.33333333 L5,7.33333333 L5,7.33333333 Z M17.5,17.1111111 L15,17.1111111 L15,14.6666667 L17.5,14.6666667 L17.5,17.1111111 L17.5,17.1111111 L17.5,17.1111111 Z M17.5,12.2222222 L15,12.2222222 L15,9.77777778 L17.5,9.77777778 L17.5,12.2222222 L17.5,12.2222222 L17.5,12.2222222 Z M17.5,7.33333333 L15,7.33333333 L15,4.88888889 L17.5,4.88888889 L17.5,7.33333333 L17.5,7.33333333 L17.5,7.33333333 Z"></path>
                    </g>
                </g>
            </g>
        </g>
    </g>
</svg>