<?xml version="1.0" encoding="UTF-8" standalone="no"?>
<svg width="24px" height="24px" viewBox="0 0 24 24" version="1.1" xmlns="http://www.w3.org/2000/svg" xmlns:xlink="http://www.w3.org/1999/xlink">
    <!-- Generator: Sketch 3.8.3 (29802) - http://www.bohemiancoding.com/sketch -->
    <title>nextui-note</title>
    <desc>Created with Sketch.</desc>
    <defs></defs>
    <g id="Page-1" stroke="none" stroke-width="1" fill="none" fill-rule="evenodd">
        <g id="nextui-note">
            <g id="ic_note_add" transform="translate(0.000000, 0.000000)">
                <g id="Icon-24px" transform="translate(-0.000000, 0.000000)">
                    <polygon id="Shape" fill="#D8D8D8" opacity="0" points="0 0.414746544 23.983581 0.414746544 23.983581 23.640553 0 23.640553"></polygon>
                    <path d="M14.4008556,0.362903226 L4.76459533,0.362903226 C3.43960955,0.362903226 2.3675756,1.41273041 2.3675756,2.69585253 L2.35553028,21.359447 C2.35553028,22.6425691 3.42756423,23.6923963 4.75255001,23.6923963 L19.2189857,23.6923963 C20.5439714,23.6923963 21.6280507,22.6425691 21.6280507,21.359447 L21.6280507,7.36175115 L14.4008556,0.362903226 Z M13.196323,8.52822581 L13.196323,2.11261521 L19.8212519,8.52822581 L13.196323,8.52822581 Z M5.96912786,15.5270737 L18.0144531,15.5270737 L18.0144531,17.2767857 L5.96912786,17.2767857 L5.96912786,15.5270737 Z M5.96912786,19.0264977 L18.0144531,19.0264977 L18.0144531,20.7762097 L5.96912786,20.7762097 L5.96912786,19.0264977 Z M5.96912786,12.0276498 L18.0144531,12.0276498 L18.0144531,13.7773618 L5.96912786,13.7773618 L5.96912786,12.0276498 Z" id="Combined-Shape" fill="#000000"></path>
                </g>
            </g>
        </g>
    </g>
</svg>