<?xml version="1.0" encoding="UTF-8" standalone="no"?>
<svg width="24px" height="24px" viewBox="0 0 24 24" version="1.1" xmlns="http://www.w3.org/2000/svg" xmlns:xlink="http://www.w3.org/1999/xlink">
    <!-- Generator: Sketch 3.8.3 (29802) - http://www.bohemiancoding.com/sketch -->
    <title>nextui-brand</title>
    <desc>Created with Sketch.</desc>
    <defs>
        <rect id="path-1" x="0.102680096" y="0.0148514851" width="23.7623762" height="23.7623762"></rect>
        <mask id="mask-2" maskContentUnits="userSpaceOnUse" maskUnits="objectBoundingBox" x="0" y="0" width="23.7623762" height="23.7623762" fill="white">
            <use xlink:href="#path-1"></use>
        </mask>
    </defs>
    <g id="Page-1" stroke="none" stroke-width="1" fill="none" fill-rule="evenodd">
        <g id="nextui-brand">
            <g id="Group">
                <use id="Rectangle-6605" stroke="#979797" mask="url(#mask-2)" stroke-width="2" fill="#D8D8D8" opacity="0" xlink:href="#path-1"></use>
                <path d="M16.8255681,8.86519802 L19.9044157,3.91737624 L22.9831639,8.86519802 L16.8255681,8.86519802 L16.8255681,8.86519802 Z M12.7798832,3.63391089 L18.93733,3.63391089 L15.8586314,8.75118812 L12.7798832,3.63391089 L12.7798832,3.63391089 Z M8.75406862,8.86519802 L11.8328168,3.91737624 L14.911565,8.86519802 L8.75406862,8.86519802 L8.75406862,8.86519802 Z M4.77465108,3.63391089 L10.9320978,3.63391089 L7.85334961,8.75118812 L4.77465108,3.63391089 L4.77465108,3.63391089 Z M0.728767497,8.86519802 L3.80746603,3.91737624 L6.88636326,8.86519802 L0.728767497,8.86519802 L0.728767497,8.86519802 Z M11.4587591,22.1228713 L0.793643906,9.6790099 L7.18143667,9.6790099 L11.4587591,22.1228713 L11.4587591,22.1228713 Z M15.367985,9.6790099 L12.1184519,22.1488614 L8.34121424,9.6790099 L15.367985,9.6790099 L15.367985,9.6790099 Z M22.9597666,9.6790099 L12.6926031,22.1228713 L16.6215005,9.6790099 L22.9597666,9.6790099 L22.9597666,9.6790099 Z" id="Shape" fill="#000000"></path>
            </g>
        </g>
    </g>
</svg>