<?xml version="1.0" encoding="UTF-8" standalone="no"?>
<svg width="24px" height="24px" viewBox="0 0 24 24" version="1.1" xmlns="http://www.w3.org/2000/svg" xmlns:xlink="http://www.w3.org/1999/xlink">
    <!-- Generator: Sketch 3.8.3 (29802) - http://www.bohemiancoding.com/sketch -->
    <title>nextui-filter</title>
    <desc>Created with Sketch.</desc>
    <defs>
        <polygon id="path-1" points="0 0 24 0 24 24 0 24"></polygon>
    </defs>
    <g id="Page-1" stroke="none" stroke-width="1" fill="none" fill-rule="evenodd">
        <g id="nextui-filter">
            <g id="Page-1">
                <mask id="mask-2" fill="white">
                    <use xlink:href="#path-1"></use>
                </mask>
                <g id="Clip-2"></g>
                <g id="ic_add_box" mask="url(#mask-2)">
                    <g transform="translate(4.000000, 4.000000)" id="Group">
                        <g>
                            <path d="M15.0820149,0.211232075 C15.579542,0.211342819 15.9422174,0.709157777 15.7615219,1.15552583 C15.7177156,1.26375706 15.6332257,1.36197796 15.5490016,1.44642358 C13.7765296,3.22314777 12.0018208,4.99761298 10.225318,6.77030645 C10.154537,6.84093248 10.125259,6.90907809 10.1253697,7.01020021 C10.1284259,9.68967081 10.1281823,12.3691414 10.1275622,15.048612 C10.1274293,15.5837443 9.66657729,15.9298096 9.18052225,15.7545844 C9.08717363,15.7209435 8.99714705,15.6566957 8.92603377,15.5860033 C7.98379968,14.6492616 7.04581775,13.7082677 6.10513394,12.7699536 C5.94691746,12.6121357 5.87536125,12.426568 5.87562702,12.2038823 C5.87770882,10.4545093 5.87766452,8.70513642 5.87398815,6.95576348 C5.87387741,6.90243408 5.83928417,6.83692394 5.8001287,6.79767987 C4.01191033,5.00540864 2.22391346,3.21287168 0.428718873,1.4275767 C0.112928159,1.11353557 0.165770348,0.736376187 0.361437008,0.469086875 C0.501493138,0.277760981 0.701234816,0.210257627 0.93198195,0.210434813 C2.22001563,0.211431423 3.50807146,0.210922048 4.79610514,0.210922048 C5.86639186,0.210944166 6.9367007,0.210944166 8.00698737,0.210966307 C10.3653299,0.210988447 12.7236724,0.210678398 15.0820149,0.211232075 Z" id="Shape" fill="#000000"></path>
                        </g>
                    </g>
                </g>
                <polygon id="Stroke-5" stroke-opacity="0" stroke="#000000" mask="url(#mask-2)" points="-4 -4 28 -4 28 28 -4 28"></polygon>
            </g>
        </g>
    </g>
</svg>