<?xml version="1.0" encoding="UTF-8" standalone="no"?>
<svg width="24px" height="24px" viewBox="0 0 24 24" version="1.1" xmlns="http://www.w3.org/2000/svg" xmlns:xlink="http://www.w3.org/1999/xlink">
    <!-- Generator: Sketch 3.8.3 (29802) - http://www.bohemiancoding.com/sketch -->
    <title>nextui-user-b</title>
    <desc>Created with Sketch.</desc>
    <defs>
        <rect id="path-1" x="0" y="0" width="24" height="24"></rect>
        <mask id="mask-2" maskContentUnits="userSpaceOnUse" maskUnits="objectBoundingBox" x="0" y="0" width="24" height="24" fill="white">
            <use xlink:href="#path-1"></use>
        </mask>
    </defs>
    <g id="Page-1" stroke="none" stroke-width="1" fill="none" fill-rule="evenodd">
        <g id="nextui-user-b">
            <g id="Group">
                <use id="Rectangle-6605" stroke="#979797" mask="url(#mask-2)" stroke-width="2" fill="#D8D8D8" opacity="0" xlink:href="#path-1"></use>
                <path d="M14.2114109,21.6 L13.7052111,21.6 L12.9459114,21.6 L2.65318229,21.6 L2.65318229,21.0938002 C2.65318229,21.0938002 2.4000824,18.3097013 6.53404739,17.6347683 C6.53404739,17.6347683 9.65561279,17.2129351 9.82434605,16.3692688 C9.82434605,16.3692688 9.90871269,16.2849022 9.82434605,15.2725026 C9.65561277,13.1633368 8.30574665,12.1509372 7.71518023,11.3072709 C7.1246138,10.4636045 7.1246138,9.53557158 7.1246138,9.53557158 C7.1246138,9.28247169 7.20898044,9.19810505 7.3777137,9.02937179 C7.63081359,8.94500515 7.54644696,8.77627189 7.46208034,8.52317199 C7.29334708,7.7638723 7.29334708,6.49837282 7.46208034,5.65470649 C7.46208034,4.72667354 8.39011329,3.96737385 8.39011329,3.96737385 C8.55884654,3.79864057 8.72757982,3.71427395 8.81194644,3.46117405 C8.81194644,3.37680742 8.89631308,3.37680742 8.89631308,3.2924408 C8.98067972,3.0393409 8.72757982,2.95497426 8.81194644,2.70187436 C8.81194644,2.5331411 9.2337796,2.44877447 9.40251287,2.44877447 C9.90871267,2.44877447 10.4149125,2.36440783 10.8367456,2.44877447 C14.4645108,2.70187436 15.7300103,4.05174049 15.7300103,4.05174049 C15.9831102,4.38920702 16.2362101,4.81104018 16.3205767,5.23287333 C16.3205767,5.40160659 16.4049434,5.48597323 16.4049434,5.65470649 C16.48931,6.32963954 16.48931,7.00457261 16.48931,7.67950566 C16.48931,8.0169722 16.4049434,8.2700721 16.4049434,8.60753861 C16.4049434,8.77627187 16.4049434,8.94500515 16.48931,9.02937177 C16.5736766,9.11373841 16.6580433,9.19810503 16.7424099,9.3668383 L16.7424099,9.53557156 C16.7424099,9.53557156 16.6580433,10.4636045 16.1518435,11.3072708 C15.561277,12.1509372 14.2114109,13.0789701 14.0426777,15.1881359 C13.958311,16.2005355 14.0426777,16.2849022 14.0426777,16.2849022 C14.2957776,17.1285685 17.3329763,17.5504016 17.3329763,17.5504016 C21.4669413,18.3097013 21.2138414,21.0094336 21.2138414,21.0094336 L21.2138414,21.6 L18.5141092,21.6 L18.9359423,21.6 L18.5984758,21.6 L17.8391761,21.6 L14.2114109,21.6 L14.2114109,21.6 L14.2114109,21.6 L14.2114109,21.6 Z" id="Shape" fill="#000000"></path>
            </g>
        </g>
    </g>
</svg>